<svg id="visual" viewBox="0 0 900 900" width="900" height="900" xmlns="http://www.w3.org/2000/svg" xmlns:xlink="http://www.w3.org/1999/xlink" version="1.1"><rect x="0" y="0" width="900" height="900" fill="#234C6A"></rect><g fill="#17558c"><circle r="63" cx="527" cy="809"></circle><circle r="8" cx="461" cy="372"></circle><circle r="37" cx="144" cy="729"></circle><circle r="16" cx="306" cy="474"></circle><circle r="60" cx="377" cy="708"></circle><circle r="42" cx="591" cy="276"></circle><circle r="48" cx="584" cy="522"></circle><circle r="20" cx="815" cy="483"></circle><circle r="7" cx="110" cy="577"></circle><circle r="60" cx="676" cy="824"></circle><circle r="48" cx="746" cy="175"></circle><circle r="35" cx="415" cy="75"></circle><circle r="34" cx="273" cy="180"></circle><circle r="28" cx="782" cy="724"></circle><circle r="43" cx="818" cy="348"></circle><circle r="50" cx="688" cy="399"></circle><circle r="39" cx="388" cy="834"></circle><circle r="40" cx="102" cy="183"></circle><circle r="61" cx="548" cy="94"></circle><circle r="9" cx="185" cy="79"></circle><circle r="15" cx="174" cy="435"></circle><circle r="15" cx="449" cy="575"></circle><circle r="49" cx="248" cy="630"></circle><circle r="9" cx="241" cy="827"></circle><circle r="14" cx="338" cy="338"></circle><circle r="11" cx="833" cy="80"></circle><circle r="56" cx="91" cy="330"></circle><circle r="18" cx="533" cy="673"></circle><circle r="27" cx="753" cy="594"></circle><circle r="20" cx="460" cy="205"></circle><circle r="31" cx="676" cy="63"></circle></g></svg>